<?xml version="1.0" encoding="UTF-8"?>
<svg id="Layer_1" xmlns="http://www.w3.org/2000/svg" width="960" height="326" viewBox="0 0 960 326">
  <path d="M132.75,194.79h13.35c2.74-11.24,4.9-22.64,8.38-33.62,3.24-10.24,8.1-19.95,11.85-30.05,3.25-8.74,5.82-17.73,8.94-26.51,2.04-5.75,4.62-11.31,6.8-17.02,3.43-8.98,6.59-18.07,10.14-26.99,5.05-12.69,10.32-25.28,15.57-37.89.94-2.25,1.9-4.61,3.43-6.45,1.72-2.08,4-5.02,6.18-5.15,9.88-.61,20.04-1.7,29.66-.05,10.1,1.73,21.37,3.05,27.63,13.48.74,1.23,2.08,2.56,1.99,3.76-.79,10.82-2.6,21.63-2.63,32.44-.04,14.03,1.28,28.06,2,42.09.12,2.25.24,4.51.23,6.76-.15,37.39-.49,74.79-.4,112.18.04,17.44,1.18,34.87,1.35,52.3.09,9.45-.56,18.94-1.35,28.37-.68,8.12-11.67,15.4-19.36,13.61-4.54-1.05-9.22-1.83-13.86-2.03-8-.33-10.82-2.73-10.85-10.8-.07-24.6.3-49.2-.17-73.79-.24-12.6-.22-25.62-3.44-37.61-2.59-9.64-5.84-18.84-4.84-28.87.96-9.66,3-19.25,3.49-28.93.5-9.91.03-19.92-.72-29.82-.36-4.76-4.12-4.97-6.89-1.9-2.6,2.87-4.57,6.47-6.15,10.04-1.73,3.9-2.66,8.16-3.98,12.24-4.28,13.19-9.09,26.24-12.72,39.61-2.51,9.22-3.21,18.92-5.1,28.33-1.16,5.77-2.73,11.49-4.65,17.05-4.7,13.6-9.75,27.07-14.58,40.63-2.3,6.46-3.22,13.75-6.86,19.3-6.08,9.26-13.76,17.49-20.95,26-2.05,2.42-4.06,3.54-7.36.22-3.06-3.08-8.04-4.17-11.8-6.68-3.19-2.14-6.36-4.69-8.64-7.73-4.12-5.48-7.88-11.3-11.17-17.31-1.32-2.41-.62-5.85-1.51-8.6-4.46-13.85-9.17-27.62-13.73-41.45-2.69-8.16-5.41-16.32-7.85-24.56-2.99-10.09-4.96-20.55-8.71-30.34-4.18-10.91-7.43-21.8-8.62-33.48-.32-3.14-4.06-6.84-7.18-8.54-3.11-1.69-7.13-.68-7.39,4.43-.1,2-.06,4.02-.07,6.02-.01,59.24-.02,118.48-.04,177.71,0,2.76.01,5.53-.25,8.26-.99,10.07-6.18,13.21-16.31,11.26-3.74-.72-7.93,1.35-11.9,1.28-3.8-.07-8.88.01-11.1-2.24-4.27-4.31-9.9-7.79-9.87-15.8.21-64.5-.16-129.01-.12-193.51,0-14.96,1.64-29.95,1.19-44.89-.48-15.89-1.02-31.63,2.82-47.23C7.77,9.51,21.37-3.74,37.51,2.02c10.01,3.58,20.97,4.96,31.64,6.13,9.41,1.03,15.9,2.82,18.31,14.02,2.37,10.97,8.73,21.02,12.17,31.84,4.13,12.98,6.8,26.43,10.52,39.55,5.21,18.34,11.3,36.45,16.06,54.91,2.2,8.56,1.97,17.72,3.15,26.58.87,6.54,2.22,13.02,3.39,19.74Z"/>
  <path d="M608.26,237.17c.13-4.29-4.79-7.01-10.32-9.15-.92-.36-2.46-.21-2.79-.81-5.06-9.14-14.56-7.81-22.66-9.67-7-1.6-11.47,1.03-14.07,7.87-.53,1.39-.69,3.35-1.71,4.05-8.4,5.77-6.6,14.3-6.54,22.47.12,18.57.14,37.14.13,55.71,0,10.42-8.59,15.95-18.84,14.25-8.04-1.34-16.44-.69-24.13-4.12-1.72-.77-4.32-2.08-4.49-3.41-1.14-8.78-2.27-17.62-2.38-26.45-.24-19.79-.22-39.6.35-59.38.5-17.44,2.18-34.84,2.73-52.27.19-6.08-1.58-12.2-2.21-18.32-.33-3.25-.47-6.59-.12-9.83.61-5.52,1.92-10.97,2.45-16.49.3-3.07-.5-6.24-.58-9.36-.23-9.05,1.63-18.71-.95-27.01-4.33-13.9,1.36-27.99-2.28-41.03-3.44-12.3-3.08-24.37-3.82-36.63-.11-1.77-1.63-3.46-2.58-5.33,9.35-8.4,19.4-13.44,33-11.68,11.14,1.45,23.26-2.31,33.84.45,16.86,4.39,34.92-.23,51.1,9.04,16.42,9.4,34.2,16.42,50.78,25.56,8.35,4.61,15.74,11.21,22.78,17.76,2.78,2.59,3.2,7.59,5.1,11.28,1.87,3.63,3.49,8.02,6.55,10.28,7.16,5.29,8.69,13.65,10.05,20.65,1.95,10.07-.32,20.89.11,31.35.66,16.03-7.26,28.45-15.56,40.95-1.15,1.74-1.09,4.28-1.11,4.36-4.17,2.22-6.87,3.53-9.45,5.06-4.53,2.68-8.85,5.78-13.52,8.18-4.38,2.25-8.63,12.91-6.17,18.69,2.88,6.76,6.31,13.34,10.08,19.65,5.86,9.81,11.85,19.59,18.49,28.87,4.11,5.74,9.53,10.56,14.37,15.78.34.36,1.06.6,1.11.97,1.81,12.64,15.6,21.77,11.11,35.9-1.06,3.34-6.08,7.54-9.41,7.66-13.12.46-26.56.82-39.3-1.68-5.37-1.06-9.75-8.99-13.8-14.39-3.45-4.6-5.52-10.2-8.67-15.07-6.46-10.01-12.77-20.17-20.05-29.57-4.14-5.34-10.07-9.3-16.63-15.17ZM558.55,138.8c-.07,0-.14,0-.22,0,0,8.77.07,17.54-.02,26.31-.08,7.85,3.66,11.74,11.45,12.04,9.18.36,17.92-.91,26.8-3.77,11.01-3.54,22.73-2.6,29.38-16.49,5.97-12.47,12.15-23.99,10.9-38.17-.26-2.98-.03-6.01-.03-9.02,0-15.03,1.93-30.61-11.92-41.71-.32-.26-.23-.97-.47-1.39-4.23-7.43-11.25-12.67-18.94-13.48-13.8-1.46-27.87-.66-41.81-.21-1.71.06-4.67,3.69-4.74,5.75-.48,13.2-.35,26.42-.37,39.63-.03,13.5,0,27.01,0,40.51Z"/>
  <path d="M941.18,77.09c.13,14.52,1.02,28.81,6.87,42.56,1.53,3.59-1.55,8.9-.71,13.05,2.37,11.7-3.92,21.36-7.18,31.49-1.89,5.87-7.96,10.54-15.88,9.72-3.84-.4-7.88-.78-11.6-.02-8.08,1.64-11.37-4.88-14.96-9.22-2.98-3.6-4.25-9.38-4.54-14.3-.7-11.76-.17-23.58-.53-35.36-.33-10.97-1.02-21.72-7.75-31.46-3.11-4.5-4.09-10.71-5.19-16.31-1.68-8.59-6.55-9.58-14.41-13.51-9.22-4.61-17.69-2.09-26.42-2.88-2.51-.23-5.69,1.22-7.77,2.9-9.66,7.8-14.17,18.56-17.08,30.32-1.96,7.95-6.33,15.61-6.8,23.57-.91,15.64-5.94,31.8,2.69,46.94.85,1.49,2.01,3.03,3.41,3.96,7.36,4.92,14.32,11.08,22.43,14.08,10.34,3.82,21.67,4.91,32.53,7.41,9.53,2.19,18.98,4.68,28.47,7.03.97.24,1.99.7,2.92.57,13.98-1.96,23.16,6.84,33.75,13.71,13.12,8.51,17.33,22.4,24.4,34.57,4.11,7.07-.82,13.71-4.09,19.64-4.61,8.36-9.34,17.04-15.85,23.84-6.81,7.1-15.77,12.15-23.82,18.05-2.14,1.57-4.48,2.87-6.6,4.46-5.51,4.11-11.65,5.6-18.47,6.73-6.35,1.05-12.03,5.72-18.23,8.25-13.65,5.58-27.76,5.07-41.93,2.35-1.97-.38-3.97-1.69-5.8-1.44-14.45,2.01-24.5-6.69-35.25-13.9-9.95-6.68-20.58-12.48-29.91-19.92-7.14-5.7-11.51-13.9-12.71-23.46-1.06-8.51-2.6-16.97-4.07-25.43-1.03-5.91,6.71-17.94,13.09-21.07,5.9-2.89,11.7-6.15,17.07-9.91,5.59-3.92,11.5-2.91,18.59,4.34,4.09,4.18,5.9,8.56,5.98,15.13.12,9.51,3.11,19.1,5.74,28.41,2.06,7.3,5.29,14.3,8.32,21.28.81,1.87,2.58,4.22,4.32,4.64,7.76,1.88,15.64,3.3,23.53,4.58,10.41,1.69,20.36-1.28,26.69-8.94,7.6-9.19,19.71-14.66,22.7-27.88,3.21-14.2,1.19-23.89-16.04-24.27-6.54-.14-12.95-4.26-19.49-6.36-11.01-3.53-22.25-6.41-33.06-10.47-12.2-4.58-23.98-10.25-36.03-15.23-3.82-1.58-8.19-1.96-11.83-3.82-3.39-1.74-7.08-4.15-8.99-7.27-5.43-8.85-8.48-19.62-15.27-27.09-13.98-15.38-5.16-32.92-6.64-49.29-.68-7.56,4.13-15.6,6.37-23.45,1.72-6.06,4.53-12.13,4.68-18.24.26-9.98,7.84-15.63,11.99-23.15,5.49-9.93,12.87-18.85,19.81-27.92,1.68-2.2,4.69-4.36,7.32-4.71,11.96-1.56,23.98-2.9,36.02-3.46,8.1-.37,16.31.35,24.41,1.2,11.78,1.24,23.52,2.99,35.25,4.64,1.56.22,3.32.82,4.47,1.83,10.96,9.66,21.66,19.6,32.71,29.15,15.84,13.69,18.03,18.03,18.35,39.34Z"/>
  <path d="M420.65,300.86c-10.23,4.56-19.59,8.16-28.39,12.81-9.99,5.28-20.84,4.79-31.18,4.42-8.7-.32-17.25-4.46-25.87-6.88-6.18-1.73-9.72-4.41-11.71-11.85-2.81-10.53-9.1-20.19-14.24-30.04-2.69-5.16-2.08-19.71,1.14-25,1.59-2.62,2.28-5.86,3.08-8.89,2.52-9.55,11.67-12.8,18.01-18.56,5.44-4.94,12.14-8.61,18.62-12.25,4.12-2.31,8.86-3.54,13.32-5.25,5.04-1.92,9.96-4.35,15.16-5.6,4.85-1.17,10.01-1.04,15.02-1.58,9.89-1.07,19.77-2.2,30.64-3.42-1.86-16.3-2.79-31.04-5.67-45.39-.81-4.04-7-9.13-11.38-9.87-8.88-1.5-16.88.95-24.74,7.73-12.73,10.96-17.42,25.67-24.31,39.63-1.55,3.15-5.89,6.42-9.3,6.86-7.91,1.01-16.1.9-24.05.07-3.83-.4-7.46-3.33-11-5.42-.75-.44-1.25-2.37-.96-3.35,1.69-5.71,3.65-11.34,5.53-17,.31-.94,1.2-2.11.9-2.76-5.37-11.85,6.17-14.86,10.99-21.45,2.86-3.92,5.75-8.09,7.35-12.6,4.14-11.69,17.39-22.02,29.45-21.94,16.06.11,32.11.33,48.17.52.5,0,1.09-.08,1.49.14,11.76,6.54,25.56,9.75,34.5,20.88,3.61,4.5,7.37,8.95,10.41,13.82,1.48,2.36,1.4,5.67,2.16,8.51.94,3.51,2.33,6.93,2.97,10.49,1.25,6.99,2.99,14.05,2.99,21.08-.01,19.72-.78,39.44-1.31,59.16-.18,6.95-.74,13.89-.71,20.84.02,4.44,1.06,8.86,1.23,13.31.34,9.39.6,18.8.54,28.19-.05,8.83-8.15,17.1-16.95,18.3-12.35,1.68-22.45-.86-27.89-13.39-.38-.88-1.2-1.6-1.89-2.32-.86-.89-1.81-1.69-2.09-1.95ZM352.81,270.53c0,3.56-.38,6.88.14,10.06.32,1.94,1.68,4.89,3.13,5.27,6.42,1.68,13.13,3.89,19.56,3.44,6.59-.46,13.3-3.13,19.35-6.08,5.44-2.65,11.17-6.12,14.78-10.76,6.13-7.88,11.08-16.57,9.52-27.73-.95-6.83.32-13.97.64-20.97.36-8.1-3.41-11.94-10-9-9.76,4.35-19.34,9.29-28.45,14.86-4.97,3.04-8.33,8.71-13.31,11.74-11.29,6.9-16.82,16.24-15.37,29.18Z"/>
  <path d="M441.97,95.37c-26.28,0-52.57.03-78.85-.02-7.22-.02-12.33-5.94-12.11-12.8.59-18.42,2.35-36.89-3.57-54.99-2.52-7.71,6.93-19.24,15.09-19.23,24.45.03,48.9.22,73.35.23,4.25,0,7.49.54,7.47,5.89-.11,25.84-.13,51.67-.21,77.51,0,.44-.39.88-.6,1.33-.19.7-.38,1.39-.56,2.09Z"/>
</svg>